<svg width="22" height="20" viewBox="0 0 22 20" fill="none" xmlns="http://www.w3.org/2000/svg">
<g id="Union">
<path d="M1.39943 9.00024C0.929539 9.00024 0.719135 8.41082 1.08281 8.11326L10.6821 0.259292C10.8663 0.108597 11.1312 0.108597 11.3153 0.259292L20.9146 8.11326C21.2783 8.41082 21.0679 9.00024 20.598 9.00024H1.39943ZM17.7966 7.50024L10.9987 1.93833L4.20084 7.50024H17.7966Z" fill="#AEAEAE"/>
<path d="M0.998727 18.75C0.998727 18.3358 1.33451 18 1.74873 18H20.2487C20.6629 18 20.9987 18.3358 20.9987 18.75C20.9987 19.1642 20.6629 19.5 20.2487 19.5H1.74873C1.33451 19.5 0.998727 19.1642 0.998727 18.75Z" fill="#AEAEAE"/>
<path d="M4.99873 11C4.44644 11 3.99873 11.4477 3.99873 12V15C3.99873 15.5523 4.44644 16 4.99873 16C5.55101 16 5.99873 15.5523 5.99873 15V12C5.99873 11.4477 5.55101 11 4.99873 11Z" fill="#AEAEAE"/>
<path d="M9.99873 12C9.99873 11.4477 10.4464 11 10.9987 11C11.551 11 11.9987 11.4477 11.9987 12V15C11.9987 15.5523 11.551 16 10.9987 16C10.4464 16 9.99873 15.5523 9.99873 15V12Z" fill="#AEAEAE"/>
<path d="M16.9987 11C16.4464 11 15.9987 11.4477 15.9987 12V15C15.9987 15.5523 16.4464 16 16.9987 16C17.551 16 17.9987 15.5523 17.9987 15V12C17.9987 11.4477 17.551 11 16.9987 11Z" fill="#AEAEAE"/>
</g>
</svg>
