<svg width="22" height="18" viewBox="0 0 22 18" fill="none" xmlns="http://www.w3.org/2000/svg">
<g id="Union">
<path d="M7.99805 17.9981H5.09669C4.82054 17.9981 4.59669 17.7742 4.59669 17.4981V9.00021H1.39943C0.929539 9.00021 0.719135 8.41078 1.08281 8.11323L10.6821 0.259262C10.8663 0.108567 11.1312 0.108566 11.3153 0.259261L20.9146 8.11323C21.2783 8.41078 21.0679 9.00021 20.598 9.00021H17.4017V17.4981C17.4017 17.7742 17.1778 17.9981 16.9017 17.9981H13.998V18H7.99805V17.9981ZM6.09669 7.50021V16.4981H7.99805V12C7.99805 10.8954 9.34119 10 10.998 10C12.6549 10 13.998 10.8954 13.998 12V16.4981H15.9017V7.50021H17.7966L10.9987 1.9383L4.20084 7.50021H6.09669ZM12.498 16.4981V12.0293C12.4821 11.9996 12.4311 11.9297 12.2873 11.8339C12.0231 11.6577 11.5716 11.5 10.998 11.5C10.4245 11.5 9.97301 11.6577 9.70878 11.8339C9.56502 11.9297 9.51401 11.9996 9.49805 12.0293V16.4981H12.498ZM12.5044 12.0452C12.5044 12.0452 12.5026 12.0422 12.5012 12.0356C12.5041 12.0418 12.5044 12.0452 12.5044 12.0452ZM9.49167 12.0452C9.49167 12.0452 9.49202 12.0418 9.49488 12.0356C9.49347 12.0422 9.49167 12.0452 9.49167 12.0452Z" fill="#AEAEAE"/>
</g>
</svg>
