<svg width="20" height="17" viewBox="0 0 20 17" fill="none" xmlns="http://www.w3.org/2000/svg">
<g id="Union">
<path d="M9 3C9 4.65685 7.65686 6 6 6C4.34315 6 3 4.65685 3 3C3 1.34315 4.34315 0 6 0C7.65686 0 9 1.34315 9 3ZM7.5 3C7.5 2.17157 6.82843 1.5 6 1.5C5.17158 1.5 4.5 2.17157 4.5 3C4.5 3.82843 5.17158 4.5 6 4.5C6.82843 4.5 7.5 3.82843 7.5 3Z" fill="#AEAEAE"/>
<path d="M16 5C16 6.65685 14.6569 8 13 8C11.3432 8 10 6.65685 10 5C10 3.34315 11.3432 2 13 2C14.6569 2 16 3.34315 16 5ZM14.5 5C14.5 4.17157 13.8284 3.5 13 3.5C12.1716 3.5 11.5 4.17157 11.5 5C11.5 5.82843 12.1716 6.5 13 6.5C13.8284 6.5 14.5 5.82843 14.5 5Z" fill="#AEAEAE"/>
<path d="M5.47808 13.5C5.16938 14.2933 5 15.1563 5 16.0588C5 16.5786 5.42138 17 5.94118 17H19.0588C19.5786 17 20 16.5786 20 16.0588C20 12.1603 16.8397 9 12.9412 9H12.0588C11.5152 9 10.9859 9.06145 10.4776 9.17779C10.4365 8.94293 10.3395 8.718 10.1904 8.52352C9.27921 7.33509 7.89475 6.5 6.27382 6.5H5.68583C2.76329 6.5 0.736367 9.09511 0.505163 11.8757C0.470408 12.2937 0.612246 12.7071 0.896274 13.0158C1.1803 13.3244 1.58057 13.5 2 13.5H5.47808ZM12.9412 10.5C15.8226 10.5 18.192 12.6924 18.4723 15.5H6.52774C6.62196 14.5561 6.95227 13.6818 7.45877 12.937C7.49661 12.8896 7.53178 12.8398 7.56397 12.7876C8.57479 11.401 10.2116 10.5 12.0588 10.5H12.9412ZM6.29732 11.9796C6.2925 11.9864 6.2877 11.9932 6.2829 12H2C2.04436 11.4666 2.16721 10.961 2.35451 10.5C2.95591 9.01979 4.22167 8 5.68583 8H6.27382C6.79331 8 7.28783 8.12838 7.73656 8.36015C8.21935 8.60952 8.64914 8.97857 9 9.4362C8.52509 9.60679 8.08171 9.86503 7.68289 10.1953C7.12009 10.6613 6.64603 11.2707 6.29732 11.9796Z" fill="#AEAEAE"/>
</g>
</svg>
