<svg width="20" height="20" viewBox="0 0 20 20" fill="none" xmlns="http://www.w3.org/2000/svg">
<g id="Union">
<path d="M14 4C14 6.20914 12.2091 8 10 8C7.79086 8 6 6.20914 6 4C6 1.79086 7.79086 0 10 0C12.2091 0 14 1.79086 14 4ZM12.5 4C12.5 2.61929 11.3807 1.5 10 1.5C8.61929 1.5 7.5 2.61929 7.5 4C7.5 5.38071 8.61929 6.5 10 6.5C11.3807 6.5 12.5 5.38071 12.5 4Z" fill="#AEAEAE"/>
<path d="M0 18.7059C0 13.3455 4.34547 9 9.70588 9H10.2941C15.6545 9 20 13.3455 20 18.7059C20 19.4206 19.4206 20 18.7059 20H1.29412C0.579396 20 0 19.4206 0 18.7059ZM1.50253 18.5H18.4975C18.3882 14.0632 14.7573 10.5 10.2941 10.5H9.70588C5.24273 10.5 1.61179 14.0632 1.50253 18.5Z" fill="#AEAEAE"/>
</g>
</svg>
