<svg width="18" height="19" viewBox="0 0 18 19" fill="none" xmlns="http://www.w3.org/2000/svg">
<g id="Union">
<path d="M3 1C3 0.447715 3.44772 0 4 0C4.55228 0 5 0.447715 5 1V2H13V1C13 0.447715 13.4477 0 14 0C14.5523 0 15 0.447715 15 1V2H17C17.5523 2 18 2.44772 18 3V18C18 18.5523 17.5523 19 17 19H1C0.447716 19 0 18.5523 0 18V3C0 2.44772 0.447715 2 1 2H3V1ZM1.5 3.5V6H16.5V3.5H1.5ZM1.5 17.5H16.5V7.5H1.5V17.5ZM13.5 16C14.3284 16 15 15.3284 15 14.5C15 13.6716 14.3284 13 13.5 13C12.6716 13 12 13.6716 12 14.5C12 15.3284 12.6716 16 13.5 16Z" fill="#AEAEAE"/>
</g>
</svg>
