<svg width="48" height="48" viewBox="0 0 48 48" fill="none" xmlns="http://www.w3.org/2000/svg">
<g clip-path="url(#clip0_18_66857)">
<circle cx="24" cy="24" r="21.3125" fill="#F4F4F4" stroke="#CFCFCF" stroke-width="1.375"/>
<circle cx="24" cy="18.5" r="6.875" fill="#CFCFCF"/>
<path d="M23.238 25.1643C14.5073 25.8071 7.84737 32.0014 8.38558 39.3118C20.0382 49.8762 36.2604 42.9707 40.1217 38.607C39.5835 31.2967 31.9687 24.5215 23.238 25.1643Z" fill="#CFCFCF"/>
<rect x="26" y="26" width="20" height="19.9983" rx="9.99917" fill="#F4F4F4"/>
<path d="M37.3723 34.0128L37.9856 34.626L31.9464 40.6652H31.3331V40.0519L37.3723 34.0128ZM39.772 30C39.6053 30 39.432 30.0667 39.3054 30.1933L38.0855 31.4131L40.5852 33.9128L41.805 32.693C42.065 32.433 42.065 32.0131 41.805 31.7531L40.2452 30.1933C40.1119 30.06 39.9453 30 39.772 30ZM37.3723 32.1264L30 39.4987V41.9983H32.4997L39.872 34.626L37.3723 32.1264Z" fill="#6691FF"/>
</g>
<defs>
<clipPath id="clip0_18_66857">
<rect width="44" height="44" fill="white" transform="translate(2 2)"/>
</clipPath>
</defs>
</svg>
