<svg width="24" height="24" viewBox="0 0 24 24" fill="none" xmlns="http://www.w3.org/2000/svg">
<path d="M19.8999 9.30003H14.7999L13.0999 3.80003C12.8999 3.20003 12.2999 2.90003 11.6999 3.00003C11.5999 3.00003 11.4999 3.10003 11.3999 3.10003C11.2999 3.20003 11.1999 3.20003 11.1999 3.30003C11.1999 3.30003 11.1999 3.30003 11.0999 3.40003C10.9999 3.50003 10.9999 3.70003 10.8999 3.80003L9.19993 9.30003H4.09994C3.49994 9.30003 3.19994 9.70003 2.99994 10.1C2.89994 10.5 2.99994 11 3.39994 11.4L7.59994 14.3L5.99994 19.5C5.79994 20.3 6.39994 21 7.09994 21C7.29993 21 7.59994 20.9 7.79994 20.8L11.9999 17.6L12.0999 17.7L16.1999 20.8C17.0999 21.5 18.2999 20.6 17.9999 19.6L16.3999 14.4L20.5999 11.5C21.3999 10.7 20.9999 9.30003 19.8999 9.30003ZM19.8999 10.5L15.1999 13.9L17.0999 19.8V19.9C17.0999 19.9 17.0999 19.9 16.9999 20H16.8999C16.8999 20 16.8999 20 16.7999 20L12.0999 16.4V4.00003C12.0999 4.00003 12.0999 4.00003 12.0999 4.10003L13.6999 9.40003L13.999 10.1L19.7999 10.3C19.8999 10.3 19.8999 10.3 19.8999 10.3C19.8999 10.3 19.8999 10.3 19.8999 10.4C19.9999 10.4 19.9999 10.5 19.8999 10.5C19.9999 10.5 19.9999 10.5 19.8999 10.5Z" fill="#6691FF"/>
</svg>
