<svg width="24" height="24" viewBox="0 0 24 24" fill="none" xmlns="http://www.w3.org/2000/svg">
<path d="M12.0001 2.5C12.2762 2.5 12.5001 2.72386 12.5001 3V4.25042C13.5767 4.2616 14.836 4.55325 15.9359 5.42061C17.2476 6.45495 18.2199 8.21849 18.4615 10.9803C18.4634 11.002 18.4644 11.0238 18.4644 11.0456V15.9906C18.4644 16.3365 18.4814 16.4596 18.5849 16.5885C18.7093 16.7434 19.0746 17.0287 20.1611 17.2675C20.535 17.3497 20.787 17.7003 20.7457 18.081C20.7044 18.4616 20.3829 18.75 20.0001 18.75H14.985C14.9161 19.3212 14.6128 19.8582 14.1213 20.2678C13.5587 20.7366 12.7956 21 12 21C11.2044 21 10.4413 20.7366 9.87868 20.2678C9.38723 19.8582 9.0839 19.3212 9.01503 18.75H4.00007C3.64529 18.75 3.33904 18.5014 3.2661 18.1542C3.19316 17.807 3.37348 17.4562 3.69827 17.3134C4.04191 17.1624 4.55892 16.8884 4.97634 16.5729C5.18558 16.4147 5.34357 16.2655 5.44275 16.1374C5.51805 16.0402 5.53323 15.9894 5.53577 15.9809L5.53579 11.0456C5.53579 10.0375 5.584 8.34376 6.44026 6.89615C7.29017 5.45928 8.84944 4.39634 11.5001 4.27831V3C11.5001 2.72386 11.7239 2.5 12.0001 2.5ZM10.5423 18.75C10.6006 18.9857 10.7404 19.2042 10.9477 19.3769C11.2268 19.6095 11.6053 19.7402 12 19.7402C12.3947 19.7402 12.7732 19.6095 13.0523 19.3769C13.2596 19.2042 13.3994 18.9857 13.4577 18.75H10.5423ZM15.0071 6.59846C14.0853 5.87153 12.9755 5.69182 12.0598 5.765C12.0399 5.76659 12.02 5.76739 12.0001 5.76739C9.4711 5.76739 8.315 6.67302 7.73132 7.65981C7.10186 8.72398 7.03579 10.0443 7.03579 11.0456V15.9906C7.03579 16.4266 6.83311 16.7918 6.62883 17.0557C6.57718 17.1224 6.52191 17.1872 6.46395 17.25H17.2282C16.9631 16.7732 16.9639 16.3018 16.9643 16.0236L16.9644 15.9906V11.0789C16.7444 8.63667 15.9105 7.31087 15.0071 6.59846Z" fill="black"/>
</svg>
